Coordinates
version=1
nRows=8
nColumns=36
inDegrees=yes

Units are S.I. units (second, meters, Newtons, ...)
If the header above contains a line with 'inDegrees', this indicates whether rotational values are in degrees (yes) or radians (no).

endheader
time	pelvis_tilt	pelvis_list	pelvis_rotation	pelvis_tx	pelvis_ty	pelvis_tz	hip_flexion_r	hip_adduction_r	hip_rotation_r	knee_angle_r	knee_angle_r_beta	ankle_angle_r	subtalar_angle_r	mtp_angle_r	hip_flexion_l	hip_adduction_l	hip_rotation_l	knee_angle_l	knee_angle_l_beta	ankle_angle_l	subtalar_angle_l	mtp_angle_l	lumbar_extension	lumbar_bending	lumbar_rotation	arm_flex_r	arm_add_r	arm_rot_r	elbow_flex_r	pro_sup_r	arm_flex_l	arm_add_l	arm_rot_l	elbow_flex_l	pro_sup_l
      4.98333330	    -27.47603193	      1.25055116	    -11.10946478	      1.02951343	      0.74393260	      0.17581887	     72.76669057	     10.82467579	     -5.34587017	     74.73510611	      1.30437367	     31.81102287	     -8.56997483	     -7.49999987	     91.13639567	     -6.14374239	      9.87455734	     38.37305057	      0.66973608	     -6.64775138	      6.91184937	     -7.49999987	    -25.29316877	     11.72102395	      9.31882714	     89.53943329	    -20.87608770	     76.60723724	    129.42437604	    101.48529247	     66.65898993	    -11.75221651	     43.11498412	    138.28315333	    110.33258195
      5.00000000	    -27.09692602	      1.07964327	    -10.80396369	      1.03001829	      0.74829213	      0.17579987	     71.71747807	     10.90868707	     -5.20687736	     73.86820849	      1.28924345	     31.36100740	     -8.86827396	     -7.49999987	     90.34169978	     -6.11593947	      9.68550303	     37.98459372	      0.66295623	     -6.99798000	      6.69370499	     -7.49999987	    -24.33059981	     11.59626165	      8.61482188	     87.80393731	    -20.86999617	     76.18247469	    130.03118677	    100.55792228	     67.04749588	    -11.55060003	     46.15911413	    138.90732062	    109.68606113
      5.01666670	    -26.86062803	      1.16532569	    -10.45393467	      1.03068137	      0.75434491	      0.17510393	     70.84274419	     10.57522238	     -5.07118074	     73.00221444	      1.27412900	     31.16788732	     -8.65782880	     -7.49999987	     89.67185482	     -5.90658360	      9.21833200	     37.54523121	      0.65528790	     -7.24626543	      6.71669983	     -7.49999987	    -23.72020229	     11.06765628	      8.07042850	     86.58168576	    -21.55393526	     74.95986868	    130.04788708	    101.52564576	     67.57698356	    -11.72819922	     47.68830906	    138.64375337	    110.08519778
      5.03333330	    -26.14506546	      1.10283794	    -10.19323878	      1.03173455	      0.77083029	      0.17494385	     69.06518136	     10.33608144	     -4.71870016	     71.16971514	      1.24214586	     29.99578550	     -8.95839327	     -7.49999987	     87.70449451	     -5.72816038	      8.64608398	     35.73053565	      0.62361549	     -8.06481038	      7.27834908	     -7.49999987	    -23.95907137	     10.97613325	      7.75555635	     85.55902922	    -21.96232724	     75.34254913	    130.34000943	     99.19324691	     66.74359482	    -11.67861734	     48.47148380	    139.26552398	    108.27260211
      5.05000000	    -25.08143209	      0.90947004	     -9.87307752	      1.03294503	      0.77857536	      0.17504193	     66.89805563	     10.15675839	     -4.45655635	     69.37096024	      1.21075166	     29.01071944	     -9.61826811	     -7.49999987	     85.61487174	     -5.59289909	      8.19549882	     34.63163503	      0.60443606	     -8.23229186	      7.66177693	     -7.49999987	    -24.35785537	     10.84194171	      8.00240878	     85.62558432	    -22.70107877	     75.17338950	    130.73979250	    100.17633129	     67.65934197	    -10.80630488	     50.67735128	    139.25272554	    109.72708972
      5.06666670	    -24.66685373	      1.03381781	     -9.25743046	      1.04368984	      0.78082947	      0.17542332	     65.62329709	      9.59710310	     -4.21323424	     68.40068481	      1.19381716	     29.22597643	     -9.21084079	     -7.49999987	     84.83653164	     -5.15511671	      7.78659530	     34.61772824	      0.60419334	     -8.02420289	      7.73200918	     -7.49999987	    -23.07255090	     10.42925860	      7.02593324	     83.55815493	    -21.50679409	     70.58640293	    129.14828715	    100.62894804	     67.27995913	    -11.33906436	     49.87288235	    139.26037278	    109.94421884
      5.08333330	    -24.48751063	      1.34639057	     -8.66353434	      1.03870709	      0.78662296	      0.17181003	     65.10308484	      8.91416973	     -3.84056118	     67.65414580	      1.18078760	     28.39852381	     -9.61998493	     -7.49999987	     84.42593953	     -4.57992036	      7.13981404	     34.46320976	      0.60149648	     -8.47483587	      7.52786457	     -7.49999987	    -22.06786013	     10.28208995	      6.18254627	     82.68774357	    -22.09806023	     71.01645977	    130.29283814	    101.34274199	     67.04025896	    -11.15205524	     50.09152557	    139.88685984	    110.06980623
      5.10000000	    -23.97884129	      1.37987099	     -8.24618196	      1.04366192	      0.79106589	      0.17462166	     63.86741297	      8.54367273	     -3.69703912	     66.80152160	      1.16590650	     28.38950620	     -9.20875505	     -7.49999987	     83.67857336	     -4.25085967	      6.97127356	     34.49785447	      0.60210115	     -8.23020073	      7.14962166	     -7.49999987	    -20.84317750	     10.05158606	      5.79016643	     80.66600385	    -22.38552066	     69.93466413	    131.10771616	    105.37036184	     67.05745060	    -10.46805475	     51.04293420	    140.59658896	    110.38069108
